<?xml version="1.0" encoding="UTF-8"?>
<svg id="Layer_1" data-name="Layer 1" xmlns="http://www.w3.org/2000/svg" viewBox="0 0 140 100">
  <defs>
    <style>
      .cls-1 {
        fill: #010101;
      }

      .cls-2 {
        fill: #fff;
      }
    </style>
  </defs>
  <g>
    <path class="cls-1" d="M100.64603,79.08735s-19.75176,1.15981-31.29083,1.15981c-11.31477,0-29.71443-1.15981-29.71443-1.15981v-32.00133h61.00526v32.00133Z"/>
    <circle class="cls-1" cx="109.1416" cy="70.88263" r="16.7013"/>
    <circle class="cls-1" cx="30.8584" cy="70.88263" r="16.7013"/>
    <circle class="cls-1" cx="33.44422" cy="50.7316" r="12.52598"/>
    <circle class="cls-1" cx="105.45853" cy="50.04379" r="12.52598"/>
  </g>
  <path class="cls-2" d="M79.45843,73.74157h-6.78985l-5.20425-8.06966v8.06966h-5.45435v-20.98209h8.4878c1.16844,0,2.18838.17194,3.0608.51486.87145.34389,1.59049.81185,2.15614,1.40584.56663.59399.99259,1.27981,1.28079,2.05845.28723.77961.43084,1.61393.43084,2.50492,0,1.59537-.38492,2.88984-1.15476,3.88145-.76984.99259-1.90604,1.66571-3.4086,2.01839l6.59543,8.59819ZM67.46433,62.13728h1.02971c1.07563,0,1.90116-.22275,2.47658-.66726.57445-.44549.86265-1.0854.86265-1.9207,0-.83432-.2882-1.47423-.86265-1.91972-.57543-.44549-1.40096-.66824-2.47658-.66824h-1.02971v5.17592Z"/>
  <path class="cls-2" d="M54.73215,67.3005l-4.80076.47187-.55149,2.32125-3.5825.3517,3.65089-13.40873,3.66896-.3605,6.18951,12.44349-3.58299.3517-.99161-2.1708ZM53.58911,64.83466l-1.93095-4.15597-1.08638,4.45199,3.01733-.29602Z"/>
  <path class="cls-2" d="M90.96229,60.47619l-5.0089-.72168-.29797,2.1493,4.65231.67283-.39274,2.83317-4.65133-.67283-.6995,5.05086-3.3451-.46308,1.78197-12.86652,8.354,1.18671-.39274,2.83122Z"/>
  <g>
    <path d="M21.35468,28.55274V12.41607h8.39564c1.91831,0,3.44333.43521,4.57238,1.30563,1.12816.8722,1.69357,2.20281,1.69357,3.99181,0,.61358-.12129,1.25569-.36297,1.92456-.24258.66887-.6216,1.26639-1.13708,1.789-.51637.52439-1.1781.89182-1.98431,1.1023l-.67689-1.6695,5.05575,7.69288h-6.24188l-3.72515-6.87062,2.10471,1.71765h-2.85473v5.15296h-4.83904ZM26.19372,19.98766h2.95105c.41916,0,.79016-.14804,1.113-.44591.32284-.29965.48426-.83475.48426-1.60885,0-.66173-.16142-1.14154-.48426-1.44119-.32284-.29787-.69384-.44591-1.113-.44591h-2.95105v3.94186Z"/>
    <path d="M42.83785,28.55274l5.95204-16.13667h5.37057l5.41873,16.13667h-4.95944l-4.95944-15.53202,2.56489-.21761-4.91128,15.74962h-4.47607ZM46.53981,25.72209l.82226-3.38715h7.08822l.46018,3.38715h-8.37067Z"/>
    <path d="M67.85263,28.55274v-12.50695h-4.03997v-3.62973h13.01529v3.62973h-4.13628v12.50695h-4.83904Z"/>
    <path d="M83.84483,28.55274V12.41607h11.44211v3.62973h-6.57988v2.61126h5.63633v3.62973h-5.6613v2.63623h6.60485v3.62973h-11.44211Z"/>
    <path d="M103.15105,28.55274V12.41607h7.08822c2.83779,0,4.90682.68492,6.20532,2.05655s1.94774,3.37823,1.94774,6.02338c0,2.6291-.64925,4.63035-1.94774,6.0002-1.2985,1.37163-3.36753,2.05655-6.20532,2.05655h-7.08822ZM107.98831,24.92302h1.64631c1.19326,0,2.12433-.3496,2.79319-1.05235.66887-.70097,1.00419-1.82646,1.00419-3.37466,0-1.56426-.33533-2.69688-1.00419-3.39785-.66887-.70276-1.59993-1.05235-2.79319-1.05235h-1.64631v8.87722Z"/>
  </g>
</svg>